<svg xmlns="http://www.w3.org/2000/svg" width="32" height="27" viewBox="0 0 32 27">
    <path fill="#C8C8C8" fill-rule="evenodd" d="M11.656 9.002v.03c0 1.863 1.427 3.374 3.188 3.374 1.76 0 3.188-1.51 3.188-3.375v-.029h12.36c.888 0 1.609.756 1.609 1.688 0 .932-.72 1.687-1.61 1.687h-.995L23.424 27H8.417L2.443 12.376l-.836.001C.721 12.377 0 11.622 0 10.69s.72-1.687 1.607-1.687h10.05zm-.686 5.592h-.44a1 1 0 0 0-1 .998v7.035a1 1 0 0 0 1 .998h.44a.998.998 0 0 0 .999-.998v-7.035a.998.998 0 0 0-.999-.998zm5.22 0h-.473a1 1 0 0 0-1 .998v7.035a1 1 0 0 0 1 .998h.472c.551 0 .999-.447.999-.998v-7.035a.999.999 0 0 0-.999-.998zm5.155 0h-.47a.998.998 0 0 0-1 .998v7.035c0 .551.447.998 1 .998h.47a1 1 0 0 0 1-.998v-7.035a.999.999 0 0 0-1-.998zM19.529.188c.66.423.884 1.36.504 2.094l-3.675 7.08c-.381.733-1.224.985-1.883.561-.66-.423-.885-1.36-.505-2.094L17.645.75c.381-.733 1.223-.984 1.884-.561z"/>
</svg>
