<svg xmlns="http://www.w3.org/2000/svg" width="26" height="20" viewBox="0 0 26 20">
    <path fill="#FFF" fill-rule="evenodd" d="M9.977.01a9.932 9.932 0 0 1 6.981 2.857l-2.253 2.455a6.62 6.62 0 0 0-4.728-1.979c-3.674 0-6.651 2.985-6.651 6.667 0 3.683 2.977 6.668 6.65 6.668 2.978 0 5.5-1.962 6.347-4.667h-5.68V8.899h9.31v3.112c-.924 4.565-5.15 8-9.976 8-5.51 0-9.978-4.477-9.978-10C0 4.486 4.466.008 9.977.01zm14.118 6.975v1.909H26v1.636h-1.905v1.91h-1.632v-1.91h-1.905V8.894h1.905v-1.91h1.632z"/>
</svg>
