<svg xmlns="http://www.w3.org/2000/svg" width="12" height="11" viewBox="0 0 12 11">
    <path fill="#FFF" fill-rule="evenodd" d="M10.016.021c.379 0 .704.132.977.396.272.264.407.58.407.949v7.795c0 .369-.135.686-.407.949a1.354 1.354 0 0 1-.977.396H1.985c-.38 0-.707-.132-.977-.396a1.274 1.274 0 0 1-.41-.949V1.366c0-.368.137-.685.41-.949.27-.264.597-.396.977-.396zM2.794 4.458h-.992v4.424a.4.4 0 0 0 .122.296c.083.08.185.12.307.12h7.517c.117 0 .218-.04.302-.12a.388.388 0 0 0 .127-.296V4.458h-.95c.095.287.141.585.141.894 0 .574-.149 1.103-.45 1.587-.3.485-.707.868-1.223 1.15a3.462 3.462 0 0 1-1.688.424c-.923 0-1.713-.308-2.37-.925-.656-.617-.985-1.362-.985-2.236 0-.309.048-.607.142-.894zm3.213-1.256c-.596 0-1.106.2-1.53.597-.423.398-.637.88-.637 1.444s.214 1.045.638 1.444c.423.398.933.597 1.529.597.601 0 1.112-.2 1.537-.597.424-.399.636-.88.636-1.444s-.212-1.046-.636-1.444a2.166 2.166 0 0 0-1.537-.597zM9.692 1.19H8.468a.472.472 0 0 0-.345.14.453.453 0 0 0-.14.33v1.127a.45.45 0 0 0 .14.334.48.48 0 0 0 .345.137h1.224c.136 0 .25-.046.345-.137a.446.446 0 0 0 .14-.334V1.659a.449.449 0 0 0-.14-.33.47.47 0 0 0-.345-.14z"/>
</svg>
