<svg xmlns="http://www.w3.org/2000/svg" width="14" height="22" viewBox="0 0 14 22">
    <path fill="#FFF" fill-rule="evenodd" d="M12.555.996L9.67.992c-3.24 0-5.334 1.935-5.334 4.93v2.274h-2.9c-.25 0-.454.183-.454.41v3.293c0 .226.203.408.454.408h2.9v8.313c0 .226.203.41.454.41h3.783c.25 0 .453-.185.453-.41v-8.313h3.392c.25 0 .453-.182.453-.408l.002-3.293a.392.392 0 0 0-.133-.29.477.477 0 0 0-.32-.12H9.025V6.269c0-.926.246-1.397 1.586-1.397h1.943c.25 0 .453-.183.453-.41V1.405c0-.225-.203-.408-.453-.408z"/>
</svg>
