<svg xmlns="http://www.w3.org/2000/svg" width="20" height="25" viewBox="0 0 20 25">
    <path fill="#FFF" fill-rule="evenodd" d="M8.222 16.554c-.676 3.442-1.5 6.742-3.941 8.466-.754-5.202 1.106-9.11 1.97-13.258-1.472-2.412.178-7.267 3.285-6.07 3.823 1.471-3.311 8.967 1.478 9.904 5 .977 7.04-8.44 3.94-11.502-4.479-4.421-13.04-.1-11.987 6.23.256 1.548 1.9 2.017.657 4.153C.757 13.86-.1 11.66.012 8.727.189 3.926 4.445.565 8.715.1 14.113-.487 19.18 2.029 19.88 6.97c.788 5.576-2.437 11.616-8.21 11.181-1.566-.118-2.223-.872-3.45-1.597z"/>
</svg>
