<svg xmlns="http://www.w3.org/2000/svg" width="14" height="11" viewBox="0 0 14 11">
    <path fill="#FFF" fill-rule="evenodd" d="M13.226 1.065a5.94 5.94 0 0 1-1.719.573c-.492-.46-1.195-.745-1.974-.745C8.04.893 6.828 1.95 6.828 3.25c0 .184.025.364.07.537-2.246-.099-4.24-1.037-5.575-2.463A2.112 2.112 0 0 0 .96 2.51c0 .818.477 1.539 1.202 1.961a3.01 3.01 0 0 1-1.225-.296v.03c0 1.142.933 2.094 2.169 2.311a3.082 3.082 0 0 1-1.222.04c.345.937 1.343 1.618 2.527 1.638C3.483 8.824 2.317 9.2 1.05 9.2c-.218 0-.434-.011-.645-.033a8.498 8.498 0 0 0 4.146 1.06c4.976 0 7.696-3.592 7.696-6.707l-.008-.305c.53-.331.99-.746 1.35-1.218a6.048 6.048 0 0 1-1.552.37c.559-.29.987-.753 1.19-1.303z"/>
</svg>
