<svg xmlns="http://www.w3.org/2000/svg" width="9" height="13" viewBox="0 0 9 13">
    <path fill="#FFF" fill-rule="evenodd" d="M7.733.497L6.005.494c-1.94 0-3.194 1.125-3.194 2.866v1.321H1.073c-.149 0-.271.106-.271.238v1.914c0 .131.122.238.271.238H2.81v4.83c0 .132.122.239.271.239h2.266c.152 0 .273-.107.273-.238V7.07h2.031c.15 0 .271-.107.271-.238l.002-1.914a.224.224 0 0 0-.08-.168.29.29 0 0 0-.192-.07H5.62v-1.12c0-.538.147-.812.95-.812h1.162c.152 0 .273-.106.273-.237V.734c0-.131-.12-.237-.272-.237z"/>
</svg>
