<svg xmlns="http://www.w3.org/2000/svg" width="12" height="14" viewBox="0 0 12 14">
    <path fill="#FFF" fill-rule="evenodd" d="M2.554 8.194c.674-1.096-.217-1.337-.357-2.131C1.627 2.815 6.27.597 8.701 2.866c1.683 1.572.574 6.404-2.138 5.901-2.598-.479 1.273-4.326-.801-5.08C4.077 3.073 3.182 5.564 3.98 6.8c-.468 2.13-1.476 4.134-1.068 6.802 1.325-.883 1.772-2.577 2.138-4.344.666.373 1.023.76 1.871.82 3.131.223 4.88-2.876 4.452-5.737C10.993 1.807 8.246.515 5.315.818 2.998 1.058.689 2.78.593 5.244.535 6.748 1 7.877 2.553 8.194z"/>
</svg>
